<?xml version="1.0" encoding="utf-8"?>
<!-- Generator: Adobe Illustrator 21.0.2, SVG Export Plug-In . SVG Version: 6.00 Build 0)  -->
<svg version="1.1" id="Layer_1" xmlns="http://www.w3.org/2000/svg" xmlns:xlink="http://www.w3.org/1999/xlink" x="0px" y="0px"
	 viewBox="0 0 275.5 275.5" style="enable-background:new 0 0 275.5 275.5;" xml:space="preserve">
<style type="text/css">
	.st0{opacity:0.1;fill:#FFFFFF;}
</style>
<polygon class="st0" points="262.8,152.9 237.2,114.6 260.5,109.2 223.3,81.9 243.3,68.9 199,56 213.4,36.9 167.4,39.9 174.3,17.1 
	132.1,35.7 130.8,11.8 97.5,43.7 88.1,21.7 67.8,63.1 51.4,45.6 46.4,91.5 25.1,80.6 36.1,125.4 12.4,122.6 38,160.9 14.7,166.3 
	51.9,193.6 31.9,206.6 76.2,219.5 61.8,238.6 107.9,235.6 100.9,258.4 143.1,239.8 144.4,263.7 177.7,231.8 187.1,253.8 
	207.5,212.4 223.8,229.9 228.8,184 250.1,194.9 239.1,150.1 "/>
<polygon points="184,225.9 177.8,231.8 187.1,253.8 207.5,212.4 137.7,137.8 "/>
<polygon points="211.3,204.7 207.5,212.4 223.8,229.9 228.9,184 137.7,137.8 "/>
<polygon points="239.2,150.1 137.7,137.8 229.8,175.5 228.9,184 250.2,194.9 "/>
<polygon points="237.1,141.7 239.2,150.1 262.9,152.9 237.3,114.6 137.7,137.8 "/>
<polygon points="232.5,107.5 237.3,114.6 260.6,109.2 223.3,81.9 137.7,137.8 "/>
<polygon points="216.4,76.9 223.3,81.9 243.4,68.9 199.1,56 137.7,137.8 "/>
<polygon points="190.9,53.6 199.1,56 213.4,36.9 167.4,39.9 137.7,137.8 "/>
<polygon points="158.9,40.5 167.4,39.9 174.4,17.1 132.2,35.7 137.7,137.8 "/>
<polygon points="124.3,39.1 132.2,35.7 130.9,11.8 97.6,43.7 137.7,137.8 "/>
<polygon points="91.4,49.6 97.6,43.7 88.2,21.7 67.8,63.1 137.7,137.8 "/>
<polygon points="64.1,70.8 67.8,63.1 51.5,45.6 46.5,91.5 137.7,137.8 "/>
<polygon points="45.6,100 46.5,91.5 25.2,80.6 36.2,125.4 137.7,137.8 "/>
<polygon points="38.2,133.8 36.2,125.4 12.4,122.6 38.1,160.9 137.7,137.8 "/>
<polygon points="42.9,168 38.1,160.9 14.8,166.3 52,193.6 137.7,137.8 "/>
<polygon points="58.9,198.6 52,193.6 32,206.6 76.3,219.5 137.7,137.8 "/>
<polygon points="84.5,221.9 76.3,219.5 61.9,238.6 107.9,235.6 137.7,137.8 "/>
<polygon points="116.5,235 107.9,235.6 101,258.4 143.2,239.8 137.7,137.8 "/>
<polygon points="151,236.4 143.2,239.8 144.5,263.7 177.8,231.8 137.7,137.8 "/>
</svg>
